<mxfile host="app.diagrams.net" modified="2023-07-18T13:23:33.849Z" agent="Mozilla/5.0 (Macintosh; Intel Mac OS X 10_15_7) AppleWebKit/537.36 (KHTML, like Gecko) Chrome/114.0.0.0 Safari/537.36" version="21.6.2" etag="8LMrBQRQ07VnTs_uX8Ti" type="github">
  <diagram name="페이지-1" id="-ea3pvMdYcAPS7ukrnFw">
    <mxGraphModel>
      <root>
        <mxCell id="0" />
        <mxCell id="1" parent="0" />
      </root>
    </mxGraphModel>
  </diagram>
</mxfile>
